# xmcd CD database file
# Copyright (C) 1993-1998 Ti Kan
#
# Track frame offsets:
#	150
#	18230
#	37435
#	55637
#	75012
#	89972
#	108195
#	131302
#	149647
#	169827
#	190795
#	220605
#	233037
#	257500
#
# Disc length: 3651 seconds
#
# Revision: 2
# Processed by: cddbd v1.4b41PL1 Copyright (c) Steve Scherf et al.
# Submitted via: NotifyCDPlayer(CDDB) 1.51.1
#
DISCID=b60e410e
DTITLE=Roomful of Blues - Under One Roof
DYEAR=1900
DGENRE=
TTITLE0=She'll Be So Fine
TTITLE1=Running Out of Time
TTITLE2=We B 3
TTITLE3=Standing Here at the Crossroads
TTITLE4=Smack Dab in the Middle
TTITLE5=Let Me Live
TTITLE6=Still Livin' in Prison
TTITLE7=Switchin' in the Kitchen
TTITLE8=From You
TTITLE9=Q's Blues
TTITLE10=Easy Baby
TTITLE11=Farmer John
TTITLE12=Baby, Baby, Baby
TTITLE13=Rogue Elephant
EXTD=
EXTT0=
EXTT1=
EXTT2=
EXTT3=
EXTT4=
EXTT5=
EXTT6=
EXTT7=
EXTT8=
EXTT9=
EXTT10=
EXTT11=
EXTT12=
EXTT13=
PLAYORDER=
